<mxfile host="Electron" agent="Mozilla/5.0 (Windows NT 10.0; Win64; x64) AppleWebKit/537.36 (KHTML, like Gecko) draw.io/25.0.1 Chrome/128.0.6613.186 Electron/32.2.6 Safari/537.36" version="25.0.1">
  <diagram name="第 1 页" id="or37fUBgZXqje_kC6tFZ">
    <mxGraphModel dx="1595" dy="303" grid="0" gridSize="10" guides="1" tooltips="1" connect="1" arrows="1" fold="1" page="0" pageScale="1" pageWidth="827" pageHeight="1169" math="0" shadow="0">
      <root>
        <mxCell id="0" />
        <mxCell id="1" parent="0" />
        <mxCell id="Ak3Mdn1xJex_1buuIK5O-12" value="unused" style="rounded=0;whiteSpace=wrap;html=1;" vertex="1" parent="1">
          <mxGeometry x="100" y="670" width="120" height="40" as="geometry" />
        </mxCell>
        <mxCell id="Ak3Mdn1xJex_1buuIK5O-18" value="reserved" style="rounded=0;whiteSpace=wrap;html=1;" vertex="1" parent="1">
          <mxGeometry x="100" y="810" width="120" height="90" as="geometry" />
        </mxCell>
        <mxCell id="Ak3Mdn1xJex_1buuIK5O-1" value="ELF Header" style="rounded=0;whiteSpace=wrap;html=1;" vertex="1" parent="1">
          <mxGeometry x="100" y="410" width="120" height="40" as="geometry" />
        </mxCell>
        <mxCell id="Ak3Mdn1xJex_1buuIK5O-2" value="0x08048000" style="rounded=0;whiteSpace=wrap;html=1;" vertex="1" parent="1">
          <mxGeometry x="10" y="410" width="90" height="20" as="geometry" />
        </mxCell>
        <mxCell id="Ak3Mdn1xJex_1buuIK5O-3" value="text segment" style="rounded=0;whiteSpace=wrap;html=1;fillColor=#e1d5e7;strokeColor=#9673a6;" vertex="1" parent="1">
          <mxGeometry x="100" y="450" width="120" height="40" as="geometry" />
        </mxCell>
        <mxCell id="Ak3Mdn1xJex_1buuIK5O-4" value="0x08049000" style="rounded=0;whiteSpace=wrap;html=1;fillColor=#f5f5f5;fontColor=#333333;strokeColor=#666666;" vertex="1" parent="1">
          <mxGeometry x="10" y="450" width="90" height="20" as="geometry" />
        </mxCell>
        <mxCell id="Ak3Mdn1xJex_1buuIK5O-5" value="data segment" style="rounded=0;whiteSpace=wrap;html=1;fillColor=#dae8fc;strokeColor=#6c8ebf;" vertex="1" parent="1">
          <mxGeometry x="100" y="490" width="120" height="40" as="geometry" />
        </mxCell>
        <mxCell id="Ak3Mdn1xJex_1buuIK5O-6" value="bss segment" style="rounded=0;whiteSpace=wrap;html=1;fillColor=#f8cecc;strokeColor=#b85450;" vertex="1" parent="1">
          <mxGeometry x="100" y="530" width="120" height="40" as="geometry" />
        </mxCell>
        <mxCell id="Ak3Mdn1xJex_1buuIK5O-17" style="edgeStyle=orthogonalEdgeStyle;rounded=0;orthogonalLoop=1;jettySize=auto;html=1;entryX=0.5;entryY=0;entryDx=0;entryDy=0;" edge="1" parent="1" source="Ak3Mdn1xJex_1buuIK5O-7" target="Ak3Mdn1xJex_1buuIK5O-13">
          <mxGeometry relative="1" as="geometry" />
        </mxCell>
        <mxCell id="Ak3Mdn1xJex_1buuIK5O-7" value=".end" style="rounded=0;whiteSpace=wrap;html=1;" vertex="1" parent="1">
          <mxGeometry x="220" y="570" width="50" height="20" as="geometry" />
        </mxCell>
        <mxCell id="Ak3Mdn1xJex_1buuIK5O-8" value=".text" style="rounded=0;whiteSpace=wrap;html=1;" vertex="1" parent="1">
          <mxGeometry x="220" y="450" width="50" height="20" as="geometry" />
        </mxCell>
        <mxCell id="Ak3Mdn1xJex_1buuIK5O-9" value=".data" style="rounded=0;whiteSpace=wrap;html=1;" vertex="1" parent="1">
          <mxGeometry x="220" y="490" width="50" height="20" as="geometry" />
        </mxCell>
        <mxCell id="Ak3Mdn1xJex_1buuIK5O-10" value="heap memory" style="rounded=0;whiteSpace=wrap;html=1;fillColor=#d5e8d4;strokeColor=#82b366;" vertex="1" parent="1">
          <mxGeometry x="100" y="570" width="120" height="100" as="geometry" />
        </mxCell>
        <mxCell id="Ak3Mdn1xJex_1buuIK5O-13" value=".brk" style="rounded=0;whiteSpace=wrap;html=1;" vertex="1" parent="1">
          <mxGeometry x="220" y="670" width="50" height="20" as="geometry" />
        </mxCell>
        <mxCell id="Ak3Mdn1xJex_1buuIK5O-14" value="mmap" style="rounded=0;whiteSpace=wrap;html=1;fillColor=#ffe6cc;strokeColor=#d79b00;" vertex="1" parent="1">
          <mxGeometry x="100" y="710" width="120" height="100" as="geometry" />
        </mxCell>
        <mxCell id="Ak3Mdn1xJex_1buuIK5O-15" value=".vmap" style="rounded=0;whiteSpace=wrap;html=1;" vertex="1" parent="1">
          <mxGeometry x="220" y="710" width="50" height="20" as="geometry" />
        </mxCell>
        <mxCell id="Ak3Mdn1xJex_1buuIK5O-28" style="edgeStyle=orthogonalEdgeStyle;rounded=0;orthogonalLoop=1;jettySize=auto;html=1;entryX=0.5;entryY=0;entryDx=0;entryDy=0;" edge="1" parent="1" source="Ak3Mdn1xJex_1buuIK5O-16" target="Ak3Mdn1xJex_1buuIK5O-27">
          <mxGeometry relative="1" as="geometry" />
        </mxCell>
        <mxCell id="Ak3Mdn1xJex_1buuIK5O-16" value="0x10000000&lt;div&gt;(256M)&lt;/div&gt;" style="rounded=0;whiteSpace=wrap;html=1;" vertex="1" parent="1">
          <mxGeometry x="10" y="710" width="90" height="40" as="geometry" />
        </mxCell>
        <mxCell id="Ak3Mdn1xJex_1buuIK5O-19" value="stack" style="rounded=0;whiteSpace=wrap;html=1;fillColor=#fff2cc;strokeColor=#d6b656;" vertex="1" parent="1">
          <mxGeometry x="100" y="900" width="120" height="50" as="geometry" />
        </mxCell>
        <mxCell id="Ak3Mdn1xJex_1buuIK5O-31" value="" style="edgeStyle=orthogonalEdgeStyle;rounded=0;orthogonalLoop=1;jettySize=auto;html=1;" edge="1" parent="1" source="Ak3Mdn1xJex_1buuIK5O-22" target="Ak3Mdn1xJex_1buuIK5O-26">
          <mxGeometry relative="1" as="geometry" />
        </mxCell>
        <mxCell id="Ak3Mdn1xJex_1buuIK5O-22" value="0xC0000000&lt;div&gt;(3G)&lt;/div&gt;" style="rounded=0;whiteSpace=wrap;html=1;" vertex="1" parent="1">
          <mxGeometry x="10" y="950" width="90" height="40" as="geometry" />
        </mxCell>
        <mxCell id="Ak3Mdn1xJex_1buuIK5O-26" value="size 2M" style="rounded=0;whiteSpace=wrap;html=1;" vertex="1" parent="1">
          <mxGeometry x="10" y="900" width="90" height="20" as="geometry" />
        </mxCell>
        <mxCell id="Ak3Mdn1xJex_1buuIK5O-27" value="size 128M" style="rounded=0;whiteSpace=wrap;html=1;" vertex="1" parent="1">
          <mxGeometry x="10" y="790" width="90" height="20" as="geometry" />
        </mxCell>
        <mxCell id="Ak3Mdn1xJex_1buuIK5O-32" value="kernel" style="rounded=0;whiteSpace=wrap;html=1;fillColor=#f8cecc;strokeColor=#b85450;" vertex="1" parent="1">
          <mxGeometry x="100" y="950" width="120" height="40" as="geometry" />
        </mxCell>
        <mxCell id="Ak3Mdn1xJex_1buuIK5O-34" value="0x0804a000" style="rounded=0;whiteSpace=wrap;html=1;fillColor=#f5f5f5;fontColor=#333333;strokeColor=#666666;" vertex="1" parent="1">
          <mxGeometry x="10" y="490" width="90" height="20" as="geometry" />
        </mxCell>
        <mxCell id="Ak3Mdn1xJex_1buuIK5O-38" style="edgeStyle=orthogonalEdgeStyle;rounded=0;orthogonalLoop=1;jettySize=auto;html=1;entryX=0;entryY=0.5;entryDx=0;entryDy=0;" edge="1" parent="1" source="Ak3Mdn1xJex_1buuIK5O-37" target="Ak3Mdn1xJex_1buuIK5O-4">
          <mxGeometry relative="1" as="geometry">
            <Array as="points">
              <mxPoint x="-10" y="560" />
              <mxPoint x="-10" y="460" />
            </Array>
          </mxGeometry>
        </mxCell>
        <mxCell id="Ak3Mdn1xJex_1buuIK5O-39" style="edgeStyle=orthogonalEdgeStyle;rounded=0;orthogonalLoop=1;jettySize=auto;html=1;entryX=0;entryY=0.5;entryDx=0;entryDy=0;" edge="1" parent="1" source="Ak3Mdn1xJex_1buuIK5O-37" target="Ak3Mdn1xJex_1buuIK5O-34">
          <mxGeometry relative="1" as="geometry">
            <Array as="points">
              <mxPoint x="-10" y="560" />
              <mxPoint x="-10" y="500" />
            </Array>
          </mxGeometry>
        </mxCell>
        <mxCell id="Ak3Mdn1xJex_1buuIK5O-37" value="Program Header&lt;div&gt;Info&lt;/div&gt;" style="rounded=0;whiteSpace=wrap;html=1;fillColor=#f5f5f5;fontColor=#333333;strokeColor=#666666;" vertex="1" parent="1">
          <mxGeometry x="10" y="530" width="50" height="60" as="geometry" />
        </mxCell>
      </root>
    </mxGraphModel>
  </diagram>
</mxfile>
